HIERARCHY
ROOT hips
{
	OFFSET 0.000000 104.274902 0.000000
	CHANNELS 6 Xposition Yposition Zposition Xrotation Yrotation Zrotation
	JOINT spine
	{
		OFFSET 0.000000 10.181549 0.131524
		CHANNELS 6 Xposition Yposition Zposition Xrotation Yrotation Zrotation
		JOINT chest
		{
			OFFSET 0.000000 9.893990 -1.470706
			CHANNELS 3 Xrotation Yrotation Zrotation
			JOINT upperChest
			{
				OFFSET 0.000000 9.220787 -1.370637
				CHANNELS 3 Xrotation Yrotation Zrotation
				JOINT neck
				{
					OFFSET 0.000000 16.740372 -2.049022
					CHANNELS 6 Xposition Yposition Zposition Xrotation Yrotation Zrotation
					JOINT head
					{
						OFFSET 0.000000 9.617859 1.684976
						CHANNELS 6 Xposition Yposition Zposition Xrotation Yrotation Zrotation
						JOINT headEnd
						{
							OFFSET 0.000000 22.037384 7.501072
							CHANNELS 6 Xposition Yposition Zposition Xrotation Yrotation Zrotation
							End Site
							{
								OFFSET 0.000000 23.106567 -2.828246
							}
						}
					}
				}
				JOINT rightShoulder
				{
					OFFSET -4.570000 11.014877 -2.160840
					CHANNELS 6 Xposition Yposition Zposition Xrotation Yrotation Zrotation
					JOINT rightUpperArm
					{
						OFFSET -10.592867 -0.524796 -2.232105
						CHANNELS 3 Xrotation Yrotation Zrotation
						JOINT rightLowerArm
						{
							OFFSET -27.841497 0.000000 -0.000002
							CHANNELS 3 Xrotation Yrotation Zrotation
							JOINT rightHand
							{
								OFFSET -28.328812 0.000000 -0.000001
								CHANNELS 3 Xrotation Yrotation Zrotation
								JOINT rightThumbProximal
								{
									OFFSET -2.464798 -1.573990 2.681911
									CHANNELS 6 Xposition Yposition Zposition Xrotation Yrotation Zrotation
									JOINT rightThumbIntermediate
									{
										OFFSET -3.244781 -1.873383 1.873376
										CHANNELS 3 Xrotation Yrotation Zrotation
										JOINT rightThumbDistal
										{
											OFFSET -2.646263 -1.527817 1.527818
											CHANNELS 6 Xposition Yposition Zposition Xrotation Yrotation Zrotation
											JOINT rightHandThumb4
											{
												OFFSET -1.994591 -1.151581 1.151575
												CHANNELS 6 Xposition Yposition Zposition Xrotation Yrotation Zrotation
												End Site
												{
													OFFSET -1.860176 -1.142715 1.365483
												}
											}
										}
									}
								}
								JOINT rightIndexProximal
								{
									OFFSET -9.108299 -0.517883 2.259803
									CHANNELS 6 Xposition Yposition Zposition Xrotation Yrotation Zrotation
									JOINT rightIndexIntermediate
									{
										OFFSET -3.699997 0.000000 0.000000
										CHANNELS 3 Xrotation Yrotation Zrotation
										JOINT rightIndexDistal
										{
											OFFSET -2.850006 0.000000 0.000000
											CHANNELS 3 Xrotation Yrotation Zrotation
											JOINT rightHandIndex4
											{
												OFFSET -2.772194 0.000000 0.000000
												CHANNELS 3 Xrotation Yrotation Zrotation
												End Site
												{
													OFFSET -2.772202 0.000000 -0.000484
												}
											}
										}
									}
								}
								JOINT rightMiddleProximal
								{
									OFFSET -9.532501 0.000000 -0.000000
									CHANNELS 6 Xposition Yposition Zposition Xrotation Yrotation Zrotation
									JOINT rightMiddleIntermediate
									{
										OFFSET -3.699997 0.000000 0.000000
										CHANNELS 3 Xrotation Yrotation Zrotation
										JOINT rightMiddleDistal
										{
											OFFSET -2.949997 0.000000 0.000000
											CHANNELS 3 Xrotation Yrotation Zrotation
											JOINT rightHandMiddle4
											{
												OFFSET -2.946594 0.000000 0.000000
												CHANNELS 3 Xrotation Yrotation Zrotation
												End Site
												{
													OFFSET -2.946602 0.000000 -0.000982
												}
											}
										}
									}
								}
								JOINT rightRingProximal
								{
									OFFSET -9.103600 -0.043106 -1.865100
									CHANNELS 6 Xposition Yposition Zposition Xrotation Yrotation Zrotation
									JOINT rightRingIntermediate
									{
										OFFSET -3.379303 0.000000 0.000000
										CHANNELS 3 Xrotation Yrotation Zrotation
										JOINT rightRingDistal
										{
											OFFSET -2.889694 0.000000 0.000000
											CHANNELS 3 Xrotation Yrotation Zrotation
											JOINT rightHandRing4
											{
												OFFSET -2.638802 0.000000 0.000000
												CHANNELS 3 Xrotation Yrotation Zrotation
												End Site
												{
													OFFSET -2.638802 0.000000 0.004218
												}
											}
										}
									}
								}
								JOINT rightLittleProximal
								{
									OFFSET -8.076698 -0.486725 -3.806299
									CHANNELS 6 Xposition Yposition Zposition Xrotation Yrotation Zrotation
									JOINT rightLittleIntermediate
									{
										OFFSET -3.600006 0.000000 0.000000
										CHANNELS 3 Xrotation Yrotation Zrotation
										JOINT rightLittleDistal
										{
											OFFSET -2.099998 0.000000 0.000000
											CHANNELS 3 Xrotation Yrotation Zrotation
											JOINT rightHandPinky4
											{
												OFFSET -2.115791 0.000000 0.000000
												CHANNELS 3 Xrotation Yrotation Zrotation
												End Site
												{
													OFFSET -2.115799 0.000000 0.000174
												}
											}
										}
									}
								}
							}
						}
					}
				}
				JOINT leftShoulder
				{
					OFFSET 4.570400 11.014679 -2.160816
					CHANNELS 6 Xposition Yposition Zposition Xrotation Yrotation Zrotation
					JOINT leftUpperArm
					{
						OFFSET 10.592373 -0.524597 -2.232116
						CHANNELS 3 Xrotation Yrotation Zrotation
						JOINT leftLowerArm
						{
							OFFSET 27.841488 0.000000 0.000001
							CHANNELS 3 Xrotation Yrotation Zrotation
							JOINT leftHand
							{
								OFFSET 28.328808 0.000000 -0.000000
								CHANNELS 3 Xrotation Yrotation Zrotation
								JOINT leftThumbProximal
								{
									OFFSET 2.466103 -1.576202 2.681698
									CHANNELS 6 Xposition Yposition Zposition Xrotation Yrotation Zrotation
									JOINT leftThumbIntermediate
									{
										OFFSET 3.243317 -1.872528 1.872530
										CHANNELS 3 Xrotation Yrotation Zrotation
										JOINT leftThumbDistal
										{
											OFFSET 2.647881 -1.528763 1.528754
											CHANNELS 6 Xposition Yposition Zposition Xrotation Yrotation Zrotation
											JOINT leftHandThumb4
											{
												OFFSET 1.998924 -1.154083 1.154080
												CHANNELS 6 Xposition Yposition Zposition Xrotation Yrotation Zrotation
												End Site
												{
													OFFSET 1.884041 -1.149155 1.337651
												}
											}
										}
									}
								}
								JOINT leftIndexProximal
								{
									OFFSET 9.109299 -0.518005 2.259900
									CHANNELS 6 Xposition Yposition Zposition Xrotation Yrotation Zrotation
									JOINT leftIndexIntermediate
									{
										OFFSET 3.699997 0.000000 0.000000
										CHANNELS 3 Xrotation Yrotation Zrotation
										JOINT leftIndexDistal
										{
											OFFSET 2.850006 0.000000 0.000000
											CHANNELS 3 Xrotation Yrotation Zrotation
											JOINT leftHandIndex4
											{
												OFFSET 2.774895 0.000000 0.000000
												CHANNELS 3 Xrotation Yrotation Zrotation
												End Site
												{
													OFFSET 2.774902 0.000000 -0.000072
												}
											}
										}
									}
								}
								JOINT leftMiddleProximal
								{
									OFFSET 9.533401 0.000000 0.000000
									CHANNELS 6 Xposition Yposition Zposition Xrotation Yrotation Zrotation
									JOINT leftMiddleIntermediate
									{
										OFFSET 3.699997 0.000000 0.000000
										CHANNELS 3 Xrotation Yrotation Zrotation
										JOINT leftMiddleDistal
										{
											OFFSET 2.949997 0.000000 0.000000
											CHANNELS 3 Xrotation Yrotation Zrotation
											JOINT leftHandMiddle4
											{
												OFFSET 2.952896 0.000000 0.000000
												CHANNELS 3 Xrotation Yrotation Zrotation
												End Site
												{
													OFFSET 2.952904 0.000000 0.000165
												}
											}
										}
									}
								}
								JOINT leftRingProximal
								{
									OFFSET 9.104500 -0.042999 -1.865101
									CHANNELS 6 Xposition Yposition Zposition Xrotation Yrotation Zrotation
									JOINT leftRingIntermediate
									{
										OFFSET 3.149994 0.000000 0.000000
										CHANNELS 3 Xrotation Yrotation Zrotation
										JOINT leftRingDistal
										{
											OFFSET 2.950005 0.000000 0.000000
											CHANNELS 3 Xrotation Yrotation Zrotation
											JOINT leftHandRing4
											{
												OFFSET 2.644302 0.000000 0.000000
												CHANNELS 3 Xrotation Yrotation Zrotation
												End Site
												{
													OFFSET 2.644302 0.000000 0.000083
												}
											}
										}
									}
								}
								JOINT leftLittleProximal
								{
									OFFSET 8.077805 -0.486893 -3.806302
									CHANNELS 6 Xposition Yposition Zposition Xrotation Yrotation Zrotation
									JOINT leftLittleIntermediate
									{
										OFFSET 3.600006 0.000000 0.000000
										CHANNELS 3 Xrotation Yrotation Zrotation
										JOINT leftLittleDistal
										{
											OFFSET 2.099998 0.000000 0.000000
											CHANNELS 3 Xrotation Yrotation Zrotation
											JOINT leftHandPinky4
											{
												OFFSET 2.125496 0.000000 0.000000
												CHANNELS 3 Xrotation Yrotation Zrotation
												End Site
												{
													OFFSET 2.125504 0.000000 -0.001254
												}
											}
										}
									}
								}
							}
						}
					}
				}
			}
		}
	}
	JOINT rightUpperLeg
	{
		OFFSET -8.207800 -6.751701 -1.599544
		CHANNELS 6 Xposition Yposition Zposition Xrotation Yrotation Zrotation
		JOINT rightLowerLeg
		{
			OFFSET 0.000004 -44.370152 0.345934
			CHANNELS 3 Xrotation Yrotation Zrotation
			JOINT rightFoot
			{
				OFFSET 0.000004 -44.423664 -3.043535
				CHANNELS 3 Xrotation Yrotation Zrotation
				JOINT rightToes
				{
					OFFSET 0.000001 -8.728691 10.710592
					CHANNELS 3 Xrotation Yrotation Zrotation
					JOINT rightToesEnd
					{
						OFFSET 0.000000 -0.000665 9.278101
						CHANNELS 3 Xrotation Yrotation Zrotation
						End Site
						{
							OFFSET 0.000000 -0.000665 9.278103
						}
					}
				}
			}
		}
	}
	JOINT leftUpperLeg
	{
		OFFSET 8.207800 -6.751701 -1.599544
		CHANNELS 6 Xposition Yposition Zposition Xrotation Yrotation Zrotation
		JOINT leftLowerLeg
		{
			OFFSET 0.000004 -44.370037 0.346940
			CHANNELS 3 Xrotation Yrotation Zrotation
			JOINT leftFoot
			{
				OFFSET 0.000004 -44.423611 -3.044388
				CHANNELS 3 Xrotation Yrotation Zrotation
				JOINT leftToes
				{
					OFFSET 0.000001 -8.728690 10.710592
					CHANNELS 3 Xrotation Yrotation Zrotation
					JOINT leftToesEnd
					{
						OFFSET 0.000000 -0.000680 9.278101
						CHANNELS 3 Xrotation Yrotation Zrotation
						End Site
						{
							OFFSET 0.000000 -0.000680 9.278101
						}
					}
				}
			}
		}
	}
}
MOTION
Frames: 4
Frame Time: 0.033333
0.592314 99.356422 1.533872 -2.790378 -1.012974 3.259374 -0.000000 10.181540 0.131524 -3.673487 2.103658 2.006645 1.825086 0.204638 -3.563411 1.839735 0.222340 -3.555414 0.000001 16.740356 -2.049021 0.005327 -3.044291 -0.019016 0.000000 9.617841 1.684977 5.669665 4.099740 0.112405 0.000000 22.037354 7.501072 0.000000 0.000000 -0.000000 -4.570000 11.014889 -2.160840 1.454489 14.110499 8.503196 54.678253 18.111618 70.211858 -0.000281 75.258760 0.000287 51.346398 35.160547 -70.815845 -2.464790 -1.574002 2.681909 1.788485 4.679399 9.698147 4.637177 -8.634094 -0.225386 -2.646267 -1.527816 1.527821 -7.859399 19.055190 -1.516491 -1.994590 -1.151587 1.151572 -0.000000 -0.000005 -0.000000 -9.108306 -0.517895 2.259796 8.183356 12.621737 -38.427925 0.272890 -1.932482 16.073510 0.241738 -1.821032 15.122724 0.000004 0.000001 0.000001 -9.532495 -0.000008 -0.000005 3.398868 7.945783 -28.641171 0.564759 -2.749682 23.209756 2.103466 -0.073408 0.866157 -0.000000 0.000003 -0.000000 -9.103596 -0.043129 -1.865105 1.368559 4.899673 -20.505900 0.144622 -1.413620 11.682861 -0.719802 -0.402331 2.985511 -0.000003 0.000003 0.000001 -8.076705 -0.486732 -3.806302 -3.372240 -9.628508 -18.358813 0.125270 -1.316626 10.870663 0.090324 -1.119364 9.226133 -0.000001 -0.000000 -0.000001 4.570401 11.014699 -2.160815 3.264881 -13.066454 -8.920310 12.299523 32.230795 -77.872264 -0.000012 -37.449507 0.000000 11.318090 5.111658 -3.307910 2.466093 -1.576211 2.681697 -6.694093 7.651414 20.042540 11.568848 23.611312 -7.394443 2.647892 -1.528741 1.528759 5.302269 8.249619 -3.166214 1.998917 -1.154093 1.154073 0.000000 -0.000001 -0.000000 9.109289 -0.518005 2.259902 -0.982664 -2.594451 -15.812762 0.762367 3.154268 -27.170296 0.348180 2.165936 -18.263675 -0.000000 -0.000001 0.000001 9.533408 0.000007 -0.000000 -0.144694 0.710090 -18.764162 0.628364 2.878610 -24.623957 0.506789 2.597338 -22.079271 -0.000001 0.000000 -0.000000 9.104494 -0.042998 -1.865100 0.773658 3.364673 -19.548491 1.233979 3.938410 -34.783602 0.010679 0.384145 -3.184742 0.000000 0.000000 0.000003 8.077809 -0.486889 -3.806300 3.973820 12.688258 -18.446022 1.306867 -0.043927 -36.042710 0.763491 3.156440 -27.190732 0.000000 -0.000000 0.000003 -8.207799 -6.751725 -1.599541 -25.221783 -3.942345 0.137776 26.578850 -9.777201 -3.309265 -0.341642 -16.324009 -2.174341 -0.243002 -0.000012 0.000002 0.000000 -0.000000 -0.000000 8.207798 -6.751705 -1.599543 -7.973507 1.527595 -17.120731 23.088722 10.132890 4.843396 -15.912562 15.954823 7.075391 -7.789669 0.000006 0.000001 0.000001 -0.000001 0.000001 
0.608230 99.343658 1.602245 -2.790298 -1.046955 3.312216 -0.000001 10.181551 0.131523 -3.795108 2.140954 2.043719 1.862631 0.208559 -3.596378 1.877541 0.226433 -3.587913 -0.000001 16.740351 -2.049019 0.016666 -3.049434 0.004049 0.000000 9.617844 1.684976 5.628733 4.096248 0.149509 0.000001 22.037338 7.501078 -0.000000 -0.000000 0.000000 -4.570001 11.014882 -2.160838 1.454892 14.165883 8.533240 54.818668 17.557824 70.062380 -0.000150 75.912177 0.000169 50.633801 35.802930 -69.087131 -2.464784 -1.573999 2.681908 1.823099 4.569985 9.855967 4.626453 -8.603860 -0.227156 -2.646268 -1.527808 1.527821 -8.052981 19.681646 -1.476512 -1.994590 -1.151570 1.151579 0.000002 -0.000005 -0.000000 -9.108306 -0.517875 2.259807 8.248156 12.701439 -38.429704 0.251183 -1.855533 15.416442 0.227076 -1.765846 14.653812 0.000005 0.000002 0.000000 -9.532495 -0.000003 0.000006 3.638046 8.218615 -29.430640 0.523430 -2.651333 22.332762 2.169809 -0.024068 0.287851 0.000001 -0.000000 -0.000000 -9.103607 -0.043086 -1.865097 1.434008 5.019226 -20.901668 0.132893 -1.355690 11.197506 -0.725082 -0.342195 2.538150 -0.000001 0.000000 0.000000 -8.076700 -0.486736 -3.806303 -3.501118 -9.709321 -18.829734 0.124330 -1.311664 10.829408 0.089460 -1.114104 9.182476 0.000000 -0.000000 0.000001 4.570401 11.014692 -2.160815 3.318913 -13.200821 -8.955628 12.731997 32.102917 -77.867524 0.000006 -37.603596 -0.000022 10.795249 5.116779 -3.465671 2.466102 -1.576211 2.681702 -6.694122 7.651642 20.054325 11.567881 23.609024 -7.393752 2.647897 -1.528740 1.528754 5.302716 8.250679 -3.166441 1.998928 -1.154092 1.154076 0.000002 -0.000004 -0.000002 9.109286 -0.518010 2.259902 -0.987208 -2.602641 -15.840541 0.762396 3.154291 -27.170501 0.348170 2.165937 -18.263788 0.000000 -0.000000 0.000005 9.533403 0.000006 0.000003 -0.146236 0.707084 -18.782491 0.628330 2.878557 -24.623455 0.506807 2.597392 -22.079795 0.000001 0.000000 0.000006 9.104490 -0.043014 -1.865102 0.775182 3.367843 -19.567942 1.233894 3.938276 -34.782206 0.010616 0.383157 -3.176651 0.000000 -0.000000 0.000001 8.077805 -0.486892 -3.806302 3.962173 12.657830 -18.441557 1.308416 -0.041787 -36.064638 0.763464 3.156376 -27.190143 0.000000 0.000000 0.000003 -8.207800 -6.751721 -1.599537 -25.267940 -3.920859 0.096286 26.730152 -9.770845 -3.355699 -0.434559 -16.358919 -2.117758 -0.200196 0.000020 -0.000000 -0.000000 0.000002 0.000000 8.207802 -6.751717 -1.599543 -7.913892 1.495862 -17.193587 23.066138 10.134775 4.826917 -15.958930 15.949212 7.098686 -7.850174 -0.000001 -0.000001 -0.000000 0.000000 0.000000 
0.624886 99.331467 1.678818 -2.800469 -1.085937 3.350025 -0.000000 10.181547 0.131525 -3.873504 2.165904 2.095638 1.891315 0.210021 -3.645640 1.906557 0.228302 -3.636892 0.000000 16.740360 -2.049019 0.038133 -3.053805 0.015161 0.000000 9.617826 1.684975 5.629349 4.066671 0.203783 0.000000 22.037354 7.501073 -0.000000 -0.000000 0.000000 -4.570000 11.014880 -2.160840 1.454286 14.212307 8.572583 54.983002 17.199291 69.709054 -0.000159 76.574467 0.000207 49.729265 36.312072 -67.404596 -2.464793 -1.574009 2.681911 1.841568 4.489897 10.047306 4.618235 -8.582300 -0.228817 -2.646267 -1.527811 1.527815 -8.184364 20.137015 -1.446331 -1.994594 -1.151587 1.151585 -0.000001 -0.000002 -0.000002 -9.108302 -0.517879 2.259805 8.293538 12.756871 -38.432242 0.236320 -1.800790 14.950432 0.217389 -1.728410 14.336260 0.000002 0.000001 -0.000001 -9.532497 0.000003 -0.000007 3.832758 8.431104 -30.059478 0.495376 -2.582066 21.718332 2.212498 0.011460 -0.138433 -0.000002 -0.000001 0.000001 -9.103594 -0.043111 -1.865098 1.492454 5.122644 -21.253947 0.124091 -1.310408 10.818834 -0.729511 -0.300733 2.229624 -0.000002 -0.000001 -0.000001 -8.076698 -0.486718 -3.806299 -3.579435 -9.735676 -19.142005 0.122448 -1.301749 10.746388 0.088789 -1.109916 9.147518 -0.000003 -0.000001 0.000001 4.570401 11.014688 -2.160814 3.416111 -13.470080 -9.028264 12.873667 31.965419 -77.670500 0.000017 -37.746453 0.000011 10.100467 5.117170 -3.755504 2.466093 -1.576217 2.681702 -6.702787 7.624818 20.051204 11.569165 23.611735 -7.394535 2.647884 -1.528749 1.528756 5.305814 8.257761 -3.168168 1.998925 -1.154092 1.154075 0.000001 0.000001 -0.000000 9.109292 -0.518009 2.259902 -0.990989 -2.597958 -15.901319 0.762361 3.154251 -27.170119 0.348177 2.165936 -18.263718 0.000001 0.000001 0.000003 9.533391 0.000006 0.000001 -0.159358 0.671453 -18.819850 0.627916 2.877666 -24.615317 0.507023 2.597912 -22.084469 0.000001 -0.000000 -0.000000 9.104478 -0.042994 -1.865098 0.770511 3.351617 -19.625109 1.233881 3.938249 -34.781956 0.010616 0.383178 -3.176816 0.000001 0.000000 0.000006 8.077788 -0.486890 -3.806302 3.955456 12.635863 -18.446746 1.308425 -0.041786 -36.064782 0.763532 3.156525 -27.191439 -0.000000 -0.000000 0.000001 -8.207799 -6.751709 -1.599541 -25.296449 -3.907632 0.065009 26.885201 -9.762888 -3.417910 -0.533601 -16.451950 -2.041294 -0.197054 0.000002 0.000003 0.000000 0.000002 0.000000 8.207798 -6.751706 -1.599543 -7.820431 1.435688 -17.280230 23.013038 10.137114 4.818500 -16.009875 15.955013 7.139421 -8.068646 -0.000002 -0.000005 -0.000001 0.000002 0.000000 
0.645248 99.316025 1.762455 -2.822957 -1.122106 3.369819 0.000000 10.181554 0.131524 -3.923051 2.187191 2.175644 1.926577 0.210516 -3.704185 1.942273 0.229140 -3.695210 0.000000 16.740370 -2.049023 0.062166 -3.058733 0.008083 0.000000 9.617856 1.684973 5.646988 4.011684 0.243754 0.000001 22.037369 7.501077 -0.000000 0.000000 -0.000000 -4.570001 11.014859 -2.160844 1.453775 14.272305 8.633525 55.165683 16.872078 69.298703 -0.000198 77.239030 0.000251 48.802856 36.763585 -65.786777 -2.464791 -1.573998 2.681901 1.842103 4.436436 10.268080 4.613826 -8.570590 -0.229765 -2.646264 -1.527812 1.527806 -8.253326 20.412290 -1.427827 -1.994590 -1.151582 1.151581 0.000001 -0.000005 -0.000000 -9.108306 -0.517900 2.259801 8.316482 12.785192 -38.432511 0.228012 -1.769373 14.683706 0.212554 -1.709411 14.175118 -0.000001 0.000001 0.000000 -9.532508 0.000014 -0.000007 3.973471 8.578113 -30.514348 0.480156 -2.543465 21.376861 2.235137 0.033462 -0.405862 0.000005 0.000003 0.000000 -9.103604 -0.043105 -1.865106 1.541313 5.205715 -21.555179 0.118133 -1.278835 10.554898 -0.731858 -0.278540 2.064640 -0.000001 0.000001 -0.000000 -8.076698 -0.486719 -3.806304 -3.605048 -9.711587 -19.288625 0.119724 -1.287351 10.626150 0.088313 -1.106897 9.122526 -0.000000 -0.000000 0.000001 4.570401 11.014672 -2.160818 3.558747 -13.857081 -9.135495 12.812885 31.760844 -77.302011 0.000023 -37.857147 0.000009 9.229660 5.115900 -4.051487 2.466099 -1.576215 2.681700 -6.714713 7.584742 20.021462 11.577429 23.629630 -7.399921 2.647889 -1.528758 1.528754 5.313873 8.276165 -3.172587 1.998917 -1.154093 1.154075 0.000001 -0.000002 -0.000000 9.109301 -0.518006 2.259897 -0.987624 -2.590653 -15.884964 0.762254 3.154054 -27.168315 0.348183 2.165941 -18.263765 0.000000 -0.000001 0.000003 9.533415 0.000001 -0.000003 -0.178492 0.614794 -18.820328 0.627026 2.875728 -24.597591 0.507049 2.597971 -22.085005 0.000000 0.000001 0.000004 9.104498 -0.042994 -1.865104 0.761358 3.323754 -19.669295 1.233538 3.937759 -34.776994 0.010709 0.384855 -3.190726 0.000000 -0.000001 0.000002 8.077793 -0.486890 -3.806303 3.972345 12.662634 -18.483626 1.305472 -0.045830 -36.023254 0.763854 3.157140 -27.197240 0.000000 0.000000 0.000000 -8.207800 -6.751702 -1.599545 -25.311479 -3.880240 0.054153 27.055443 -9.743231 -3.472008 -0.643232 -16.549845 -1.964295 -0.201026 0.000002 0.000001 -0.000000 -0.000002 0.000000 8.207805 -6.751698 -1.599543 -7.699651 1.417501 -17.333926 22.969692 10.137488 4.755870 -16.110789 16.070361 7.229332 -8.231698 -0.000006 0.000000 0.000000 -0.000001 0.000000 
